<svg xmlns="http://www.w3.org/2000/svg" xmlns:xlink="http://www.w3.org/1999/xlink" width="120" zoomAndPan="magnify" viewBox="0 0 90 108.96" height="135" preserveAspectRatio="xMidYMid meet" version="1.0"><defs><clipPath id="5047653e0d"><path d="M 70 3.460938 L 89.984375 3.460938 L 89.984375 19 L 70 19 Z M 70 3.460938 " clip-rule="nonzero"/></clipPath><clipPath id="b2eb7ce912"><path d="M 29 77 L 50 77 L 50 97.925781 L 29 97.925781 Z M 29 77 " clip-rule="nonzero"/></clipPath><clipPath id="921e46c33e"><path d="M 0.015625 10 L 40 10 L 40 76 L 0.015625 76 Z M 0.015625 10 " clip-rule="nonzero"/></clipPath></defs><path fill="#3c9ff0" d="M 57.046875 52.503906 L 53.609375 50.957031 L 53.554688 50.9375 C 52.980469 50.664062 52.304688 50.90625 52.035156 51.46875 L 50.375 54.957031 L 46.894531 45.472656 L 53.566406 43.019531 Z M 57.046875 52.503906 " fill-opacity="1" fill-rule="nonzero"/><path fill="#064088" d="M 60.121094 54.253906 C 60.339844 54.847656 60.035156 55.503906 59.441406 55.722656 C 59.128906 55.835938 58.796875 55.804688 58.519531 55.664062 L 53.617188 53.464844 L 51.269531 58.386719 C 51 58.957031 50.316406 59.199219 49.75 58.929688 C 49.453125 58.785156 49.246094 58.535156 49.152344 58.246094 L 44.753906 46.261719 L 32.597656 50.742188 L 41.769531 75.734375 C 42.789062 75.921875 43.78125 76.234375 44.714844 76.667969 C 45.652344 77.101562 46.53125 77.652344 47.332031 78.3125 L 78.535156 66.820312 L 67.867188 37.746094 L 55.707031 42.226562 Z M 60.121094 54.253906 " fill-opacity="1" fill-rule="nonzero"/><path fill="#3c9ff0" d="M 45.945312 22.253906 L 42.503906 20.71875 L 42.453125 20.6875 C 41.890625 20.414062 41.203125 20.65625 40.933594 21.230469 L 39.273438 24.707031 L 35.804688 15.226562 L 42.464844 12.769531 Z M 45.945312 22.253906 " fill-opacity="1" fill-rule="nonzero"/><g clip-path="url(#5047653e0d)"><path fill="#3c9ff0" d="M 81.636719 18.621094 L 81.636719 16.132812 C 81.636719 15.496094 81.128906 14.984375 80.5 14.984375 L 70.441406 14.984375 L 70.441406 7.160156 L 80.5 7.160156 C 81.128906 7.160156 81.636719 6.648438 81.636719 6.011719 L 81.636719 3.527344 L 90 11.078125 Z M 81.636719 18.621094 " fill-opacity="1" fill-rule="nonzero"/></g><g clip-path="url(#b2eb7ce912)"><path fill="#064088" d="M 48.859375 84.28125 C 48.308594 82.78125 47.429688 81.5 46.339844 80.480469 C 46.324219 80.464844 46.308594 80.453125 46.296875 80.4375 C 45.539062 79.742188 44.683594 79.171875 43.761719 78.742188 C 42.828125 78.3125 41.832031 78.027344 40.804688 77.902344 L 40.789062 77.902344 C 39.300781 77.722656 37.746094 77.886719 36.242188 78.441406 C 33.695312 79.378906 31.769531 81.261719 30.714844 83.546875 C 29.660156 85.835938 29.476562 88.527344 30.410156 91.082031 L 30.414062 91.082031 C 31.347656 93.632812 33.230469 95.5625 35.507812 96.617188 C 37.792969 97.675781 40.480469 97.859375 43.027344 96.921875 L 43.03125 96.921875 C 45.574219 95.980469 47.5 94.101562 48.554688 91.816406 C 49.609375 89.527344 49.792969 86.835938 48.859375 84.28125 Z M 44.695312 90.023438 C 44.09375 91.320312 43 92.390625 41.558594 92.921875 L 41.363281 92.996094 L 41.351562 92.996094 C 39.96875 93.445312 38.53125 93.320312 37.296875 92.75 C 36 92.148438 34.933594 91.054688 34.402344 89.609375 L 34.382812 89.546875 C 33.875 88.117188 33.984375 86.617188 34.574219 85.339844 C 35.175781 84.039062 36.265625 82.972656 37.710938 82.4375 L 37.773438 82.417969 C 39.199219 81.910156 40.695312 82.019531 41.972656 82.613281 C 43.269531 83.210938 44.335938 84.308594 44.867188 85.753906 L 44.9375 85.949219 L 44.9375 85.960938 C 45.386719 87.347656 45.265625 88.789062 44.695312 90.023438 Z M 44.695312 90.023438 " fill-opacity="1" fill-rule="nonzero"/></g><path fill="#064088" d="M 85.109375 67.257812 C 84.792969 67.113281 84.425781 67.085938 84.078125 67.214844 L 49.09375 80.101562 C 49.660156 80.8125 50.152344 81.59375 50.554688 82.4375 L 85.007812 69.746094 C 85.355469 69.621094 85.617188 69.359375 85.761719 69.046875 C 85.910156 68.730469 85.933594 68.363281 85.808594 68.015625 C 85.679688 67.667969 85.421875 67.402344 85.109375 67.257812 Z M 85.109375 67.257812 " fill-opacity="1" fill-rule="nonzero"/><path fill="#064088" d="M 45.035156 43.722656 L 45.039062 43.71875 L 45.042969 43.71875 L 67.078125 35.601562 L 56.902344 7.875 C 56.867188 7.773438 56.789062 7.695312 56.699219 7.652344 C 56.605469 7.609375 56.5 7.601562 56.398438 7.640625 L 44.609375 11.984375 L 49.023438 24.011719 C 49.242188 24.605469 48.9375 25.261719 48.34375 25.480469 C 48.03125 25.59375 47.699219 25.5625 47.425781 25.417969 L 42.519531 23.21875 L 40.171875 28.144531 C 39.902344 28.714844 39.21875 28.957031 38.652344 28.683594 C 38.355469 28.542969 38.148438 28.292969 38.054688 28.003906 L 33.65625 16.019531 L 21.5 20.496094 L 31.808594 48.59375 L 45.039062 43.722656 Z M 45.035156 43.722656 " fill-opacity="1" fill-rule="nonzero"/><path fill="#064088" d="M 42.722656 86.539062 C 42.410156 85.6875 41.78125 85.039062 41.015625 84.6875 C 40.253906 84.332031 39.351562 84.269531 38.496094 84.585938 C 37.644531 84.902344 37 85.53125 36.648438 86.296875 C 36.292969 87.0625 36.230469 87.964844 36.546875 88.820312 L 36.546875 88.824219 C 36.859375 89.675781 37.488281 90.320312 38.253906 90.675781 C 39.015625 91.027344 39.917969 91.089844 40.773438 90.777344 L 40.773438 90.773438 C 41.625 90.460938 42.269531 89.832031 42.621094 89.066406 C 42.976562 88.300781 43.039062 87.398438 42.722656 86.542969 Z M 42.722656 86.539062 " fill-opacity="1" fill-rule="nonzero"/><g clip-path="url(#921e46c33e)"><path fill="#064088" d="M 39.269531 75.550781 L 30.0625 50.457031 L 30.0625 50.453125 C 30.0625 50.453125 18.964844 20.214844 18.964844 20.214844 L 18.964844 20.210938 L 18.960938 20.207031 L 17.910156 17.335938 C 16.917969 14.640625 14.925781 12.597656 12.503906 11.476562 C 10.082031 10.355469 7.238281 10.15625 4.546875 11.148438 L 0.0234375 12.816406 L 0.949219 15.347656 L 5.476562 13.679688 C 7.46875 12.949219 9.578125 13.097656 11.371094 13.925781 C 13.167969 14.757812 14.648438 16.273438 15.382812 18.269531 L 36.546875 75.949219 C 37.449219 75.707031 38.363281 75.578125 39.269531 75.550781 Z M 39.269531 75.550781 " fill-opacity="1" fill-rule="nonzero"/></g></svg>