<svg xmlns="http://www.w3.org/2000/svg" xmlns:xlink="http://www.w3.org/1999/xlink" width="1200" zoomAndPan="magnify" viewBox="0 0 900 1012.49997" height="1350" preserveAspectRatio="xMidYMid meet" version="1.0"><defs><clipPath id="d1b28bdf05"><path d="M 0.222656 54 L 899.777344 54 L 899.777344 958.558594 L 0.222656 958.558594 Z M 0.222656 54 " clip-rule="nonzero"/></clipPath></defs><g clip-path="url(#d1b28bdf05)"><path fill="#65cf72" d="M 768.621094 185.59375 C 684.070312 100.925781 571.640625 54.210938 451.832031 54.210938 C 204.980469 54.210938 4.066406 255.148438 3.976562 502.179688 C 3.976562 581.125 24.578125 658.238281 63.765625 726.140625 L 0.222656 958.28125 L 237.644531 895.964844 C 303.066406 931.683594 376.710938 950.460938 451.652344 950.503906 L 451.832031 950.503906 C 698.640625 950.503906 899.597656 749.519531 899.644531 502.535156 C 899.644531 382.820312 853.167969 270.304688 768.574219 185.59375 Z M 451.832031 874.867188 L 451.699219 874.867188 C 384.933594 874.867188 319.378906 856.894531 262.222656 822.964844 L 248.640625 814.875 L 107.738281 851.84375 L 145.320312 714.429688 L 136.472656 700.347656 C 99.203125 641.070312 79.542969 572.539062 79.585938 502.179688 C 79.675781 296.902344 246.671875 129.847656 451.964844 129.847656 C 551.394531 129.847656 644.835938 168.648438 715.128906 239.058594 C 785.421875 309.417969 824.078125 402.984375 824.03125 502.492188 C 823.945312 707.8125 656.945312 874.867188 451.789062 874.867188 Z M 656.007812 596.011719 C 644.835938 590.421875 589.828125 563.332031 579.546875 559.621094 C 569.269531 555.867188 561.851562 554.035156 554.390625 565.210938 C 546.925781 576.429688 525.476562 601.640625 518.953125 609.109375 C 512.429688 616.574219 505.902344 617.511719 494.6875 611.878906 C 483.515625 606.292969 447.453125 594.445312 404.6875 556.3125 C 371.441406 526.632812 348.960938 489.972656 342.4375 478.753906 C 335.914062 467.535156 341.765625 461.5 347.351562 455.910156 C 352.359375 450.902344 358.523438 442.8125 364.15625 436.285156 C 369.742188 429.757812 371.617188 425.066406 375.328125 417.601562 C 379.082031 410.136719 377.203125 403.609375 374.390625 397.976562 C 371.574219 392.386719 349.230469 337.269531 339.890625 314.875 C 330.820312 293.058594 321.570312 296.007812 314.730469 295.652344 C 308.207031 295.339844 300.746094 295.25 293.28125 295.25 C 285.820312 295.25 273.707031 298.019531 263.429688 309.242188 C 253.152344 320.460938 224.285156 347.550781 224.285156 402.625 C 224.285156 457.699219 264.367188 510.941406 270 518.449219 C 275.585938 525.914062 348.917969 638.96875 461.171875 687.472656 C 487.851562 699.003906 508.71875 705.890625 524.984375 711.074219 C 551.796875 719.613281 576.195312 718.40625 595.457031 715.5 C 616.953125 712.28125 661.640625 688.410156 670.980469 662.257812 C 680.316406 636.109375 680.316406 613.710938 677.503906 609.019531 C 674.6875 604.324219 667.226562 601.554688 656.054688 595.921875 Z M 656.007812 596.011719 " fill-opacity="1" fill-rule="evenodd"/></g></svg>