<svg xmlns="http://www.w3.org/2000/svg" xmlns:xlink="http://www.w3.org/1999/xlink" width="1200" zoomAndPan="magnify" viewBox="0 0 900 1012.49997" height="1350" preserveAspectRatio="xMidYMid meet" version="1.0"><defs><clipPath id="511cdc778c"><path d="M 17.652344 73.652344 L 882.722656 73.652344 L 882.722656 936 L 17.652344 936 Z M 17.652344 73.652344 " clip-rule="nonzero"/></clipPath><clipPath id="2efe89e2b9"><path d="M 256 233 L 652 233 L 652 938.722656 L 256 938.722656 Z M 256 233 " clip-rule="nonzero"/></clipPath></defs><g clip-path="url(#511cdc778c)"><path fill="#0866ff" d="M 882.839844 506.265625 C 882.839844 267.320312 689.167969 73.652344 450.265625 73.652344 C 211.359375 73.652344 17.652344 267.320312 17.652344 506.265625 C 17.652344 709.136719 157.3125 879.394531 345.742188 926.144531 L 345.742188 638.472656 L 256.515625 638.472656 L 256.515625 506.265625 L 345.742188 506.265625 L 345.742188 449.304688 C 345.742188 302.070312 412.371094 233.8125 556.921875 233.8125 C 584.335938 233.8125 631.628906 239.171875 650.964844 244.570312 L 650.964844 364.390625 C 640.75 363.304688 623.007812 362.757812 600.992188 362.757812 C 530.054688 362.757812 502.644531 389.628906 502.644531 459.476562 L 502.644531 506.226562 L 643.9375 506.226562 L 619.667969 638.433594 L 502.644531 638.433594 L 502.644531 935.65625 C 716.851562 909.796875 882.839844 727.386719 882.839844 506.226562 Z M 882.839844 506.265625 " fill-opacity="1" fill-rule="nonzero"/></g><g clip-path="url(#2efe89e2b9)"><path fill="#ffffff" d="M 619.707031 638.433594 L 643.972656 506.226562 L 502.683594 506.226562 L 502.683594 459.476562 C 502.683594 389.628906 530.09375 362.757812 601.03125 362.757812 C 623.046875 362.757812 640.789062 363.304688 651.003906 364.390625 L 651.003906 244.570312 C 631.667969 239.210938 584.375 233.8125 556.960938 233.8125 C 412.410156 233.8125 345.78125 302.070312 345.78125 449.304688 L 345.78125 506.265625 L 256.554688 506.265625 L 256.554688 638.472656 L 345.78125 638.472656 L 345.78125 926.144531 C 379.25 934.453125 414.234375 938.878906 450.304688 938.878906 C 468.046875 938.878906 485.519531 937.792969 502.722656 935.695312 L 502.722656 638.472656 L 619.746094 638.472656 Z M 619.707031 638.433594 " fill-opacity="1" fill-rule="nonzero"/></g></svg>